<?xml version="1.0" encoding="utf-8"?>
<!-- Generator: Adobe Illustrator 19.0.0, SVG Export Plug-In . SVG Version: 6.00 Build 0)  -->
<svg version="1.1" id="Calque_1" xmlns="http://www.w3.org/2000/svg" xmlns:xlink="http://www.w3.org/1999/xlink" x="0px" y="0px"
	 viewBox="0 0 100 100" style="enable-background:new 0 0 100 100;" xml:space="preserve">
<style type="text/css">
	.st0{fill:none;}
</style>
<g id="XMLID_843_">
	<path id="XMLID_824_" class="st0" d="M40.7,13.9c-0.9-0.1-1.7-0.1-2.6-0.1c-5.7,0-11.2,2-15.7,5.6c-5.2,4.2-8.4,10.2-9,16.8v0
		c-0.7,6.6,1.3,13.1,5.5,18.3c4.2,5.2,10.2,8.4,16.8,9c13.7,1.4,25.9-8.6,27.3-22.3C64.4,27.6,54.4,15.3,40.7,13.9z"/>
	<g id="XMLID_798_">
		<path id="XMLID_14_" d="M95.7,82.1L74.1,60.5c-3.3,5.3-7.7,9.8-12.9,13.3l21.4,21.3c3.4,3.5,9.1,3.5,12.5,0l0.6-0.6
			C99.2,91.1,99.2,85.5,95.7,82.1z"/>
	</g>
	<g id="XMLID_844_">
		<path id="XMLID_26_" d="M74.5,42.4c2-20-12.6-38-32.6-40c-9.7-1-19.2,1.9-26.8,8C7.6,16.6,2.9,25.4,1.9,35.1v0
			c-1,9.7,1.9,19.2,8,26.8c6.2,7.6,14.9,12.3,24.6,13.2c1.2,0.1,2.5,0.2,3.7,0.2C56.7,75.2,72.6,61.2,74.5,42.4z M63,41.3
			c-1.4,13.7-13.6,23.7-27.3,22.3c-6.6-0.7-12.6-3.9-16.8-9c-4.2-5.2-6.2-11.7-5.5-18.3v0c0.7-6.6,3.9-12.6,9-16.8
			c4.5-3.7,10-5.6,15.7-5.6c0.9,0,1.7,0,2.6,0.1C54.4,15.3,64.4,27.6,63,41.3z"/>
	</g>
</g>
</svg>
